<svg version="1.1" id="Layer_1" xmlns="http://www.w3.org/2000/svg" xmlns:xlink="http://www.w3.org/1999/xlink" x="0px" y="0px"
	 width="100%" viewBox="0 0 1251 368" enable-background="new 0 0 1251 368" xml:space="preserve">
<path fill="#FEFEFE" opacity="1.000000" stroke="none" 
	d="
M978.000000,369.000000 
	C652.000061,369.000000 326.500122,369.000000 1.000131,369.000000 
	C1.000087,246.333420 1.000087,123.666824 1.000044,1.000180 
	C417.999847,1.000120 834.999695,1.000120 1251.999634,1.000060 
	C1251.999756,123.666496 1251.999756,246.332993 1251.999878,368.999756 
	C1160.833374,369.000000 1069.666626,369.000000 978.000000,369.000000 
M907.619324,311.816742 
	C907.334961,311.647766 907.050659,311.478760 907.249207,310.789581 
	C910.162109,308.113525 913.742493,305.849915 915.743958,302.610718 
	C916.997314,300.582428 916.736633,296.623352 915.541443,294.396881 
	C914.609558,292.660889 911.135498,291.333984 908.887573,291.465912 
	C904.663269,291.713806 900.469788,293.013794 896.359131,294.206116 
	C895.585815,294.430420 894.711853,296.254578 894.824829,297.231781 
	C895.204468,300.515350 897.511780,300.398804 900.038025,299.719299 
	C904.138855,298.616272 908.266541,297.613281 912.382935,296.568054 
	C912.558411,297.044067 912.733826,297.520050 912.909302,297.996063 
	C911.582336,299.434448 910.436157,301.115295 908.894104,302.265198 
	C904.510437,305.534180 899.975159,308.600891 895.479187,311.717804 
	C893.388184,313.167450 890.771240,314.813995 893.072693,317.486847 
	C894.375916,319.000305 897.269714,320.248718 899.169067,319.934723 
	C904.600281,319.036743 909.907043,317.339569 915.212952,315.786530 
	C915.916687,315.580536 916.331482,314.387329 917.235413,313.174530 
	C913.929932,312.893768 911.166870,312.659088 907.619324,311.816742 
M948.764343,311.919556 
	C948.500427,311.722412 948.236511,311.525269 948.490967,310.864044 
	C951.108826,308.585297 954.480652,306.740295 956.116577,303.896637 
	C957.539856,301.422638 958.152222,297.244232 956.975342,294.894592 
	C955.991089,292.929443 951.899536,291.633514 949.186462,291.637756 
	C945.492798,291.643494 941.729248,292.955902 938.155579,294.176300 
	C937.150085,294.519684 935.905884,296.776337 936.209106,297.664520 
	C936.570801,298.724182 938.440247,299.787598 939.726074,299.879852 
	C941.274719,299.990906 942.876953,298.995056 944.490845,298.634491 
	C947.516418,297.958679 950.567078,297.395172 953.607361,296.784973 
	C953.801575,297.278656 953.995789,297.772339 954.190002,298.266052 
	C952.422363,299.908051 950.783081,301.722137 948.860779,303.156952 
	C944.608826,306.330566 940.073608,309.140350 935.967834,312.484070 
	C934.797546,313.437164 933.863159,316.041565 934.349426,317.296387 
	C934.867615,318.633789 937.427063,320.315063 938.696899,320.035645 
	C945.180664,318.608887 951.536804,316.600464 957.925903,314.755371 
	C958.026855,314.726257 957.980835,314.188293 958.065857,313.054443 
	C955.185669,312.897675 952.339050,312.742767 948.764343,311.919556 
M275.500000,20.820543 
	C195.671661,20.821121 115.843323,20.805164 36.015003,20.835182 
	C18.475033,20.841778 6.982869,32.433365 6.981068,49.988419 
	C6.971595,142.316116 6.972232,234.643799 6.980240,326.971497 
	C6.981770,344.608643 18.372669,356.217316 35.905342,356.224213 
	C131.232834,356.261597 226.560379,356.263641 321.887878,356.222870 
	C338.979919,356.215576 350.885864,344.337433 350.892242,327.338989 
	C350.926971,234.844635 350.926819,142.350281 350.892731,49.855930 
	C350.886475,32.837708 338.961853,20.913000 321.997162,20.836697 
	C306.831726,20.768482 291.665741,20.821095 275.500000,20.820543 
M1209.122803,102.499962 
	C1209.115845,112.661674 1209.321533,122.830170 1208.997681,132.981750 
	C1208.867432,137.063034 1208.142334,141.321960 1206.701904,145.126724 
	C1202.872925,155.240906 1192.106445,160.541153 1179.563110,159.062408 
	C1168.871216,157.801941 1162.533813,151.507248 1160.887939,140.203064 
	C1160.362915,136.596039 1160.165039,132.913773 1160.150757,129.264633 
	C1160.078979,110.985802 1160.117920,92.706535 1160.117920,74.227432 
	C1148.328491,74.227432 1136.928955,74.227432 1125.523438,74.227432 
	C1125.523438,95.892975 1124.851807,117.361572 1125.860962,138.750870 
	C1126.253418,147.068451 1129.372070,155.730103 1133.099609,163.326889 
	C1143.303589,184.122650 1166.440552,195.296417 1187.859985,190.988342 
	C1195.839600,189.383423 1202.704468,185.740356 1208.596313,179.679581 
	C1211.050049,198.498383 1201.057373,210.262604 1182.724854,210.444916 
	C1170.211792,210.569366 1157.854980,209.335403 1145.800293,203.314835 
	C1145.800293,214.542770 1145.935181,224.994629 1145.718750,235.439209 
	C1145.653198,238.602432 1146.628418,240.010651 1149.718018,240.343399 
	C1161.579346,241.620865 1173.401978,243.567184 1185.294189,244.160461 
	C1197.364624,244.762650 1208.736328,241.074539 1218.799805,234.429398 
	C1235.291992,223.539383 1243.667236,207.670303 1243.884399,188.141998 
	C1244.299194,150.831039 1244.017944,113.512329 1244.020142,76.196838 
	C1244.020264,75.577675 1243.951294,74.958511 1243.912354,74.299522 
	C1232.186646,74.299522 1220.800903,74.299522 1209.122681,74.299522 
	C1209.122681,83.564911 1209.122681,92.532433 1209.122803,102.499962 
M538.260498,155.029617 
	C538.127441,148.535339 538.038025,142.039841 537.854065,135.547012 
	C536.835388,99.589500 519.190796,78.186188 485.622467,73.490891 
	C467.035736,70.891113 449.259308,74.349907 434.388702,86.536766 
	C406.130219,109.695366 407.253723,156.470383 436.253601,179.864914 
	C455.334808,195.257965 488.983551,198.679367 505.963135,173.789703 
	C507.659393,178.632706 509.184204,183.316849 510.983612,187.892990 
	C511.438202,189.049088 512.754822,190.686554 513.700745,190.703751 
	C524.587280,190.901825 535.478699,190.830048 545.432983,190.830048 
	C543.029114,178.952591 540.700562,167.447098 538.260498,155.029617 
M716.096741,191.737808 
	C725.694336,190.258575 735.291992,188.779327 744.678467,187.332642 
	C744.678467,175.788773 744.678467,165.319183 744.678467,154.827271 
	C736.778320,155.757858 729.071472,157.287292 721.340637,157.420700 
	C711.434509,157.591599 701.421082,157.281708 691.622864,155.942657 
	C685.175537,155.061539 679.972778,150.934753 677.303467,143.486130 
	C679.757263,144.224106 681.465332,144.713303 683.158203,145.250641 
	C702.893738,151.515030 721.882996,149.478531 739.143616,138.271133 
	C759.294128,125.187241 759.132812,97.527946 739.408508,83.613304 
	C727.044067,74.890739 713.111023,72.313950 698.208862,72.950172 
	C664.550903,74.387146 641.545166,97.294701 640.474060,130.798141 
	C639.603271,158.035995 653.564758,178.938538 678.664917,187.803070 
	C690.498718,191.982376 702.783447,192.419937 716.096741,191.737808 
M1030.154907,88.500153 
	C1030.154907,122.444069 1030.154907,156.387985 1030.154907,190.553223 
	C1042.041748,190.553223 1053.430176,190.553223 1065.240234,190.553223 
	C1065.240234,163.843338 1065.240234,137.414795 1065.240234,110.389359 
	C1075.033203,110.389359 1084.419189,110.389359 1093.615234,110.389359 
	C1093.615234,99.215561 1093.615234,88.647072 1093.615234,77.754669 
	C1083.976807,77.754669 1074.701782,77.754669 1065.263794,77.754669 
	C1064.938477,70.124741 1065.552734,62.960789 1070.694580,57.316437 
	C1079.777832,47.345314 1091.827515,47.805969 1103.840820,49.055363 
	C1103.840820,37.702934 1103.840820,26.793177 1103.840820,14.560398 
	C1095.254272,15.063250 1086.870483,14.710290 1078.822998,16.188004 
	C1057.034668,20.188829 1040.905396,31.745838 1033.343506,53.362724 
	C1029.467285,64.443535 1030.144287,76.019363 1030.154907,88.500153 
M921.266602,121.500099 
	C921.266602,105.751877 921.266602,90.003647 921.266602,74.359116 
	C909.258850,74.359116 897.870728,74.359116 886.251953,74.359116 
	C886.251953,76.533447 886.252014,78.347618 886.251953,80.161789 
	C886.250854,119.822548 886.284119,159.483368 886.210693,199.143982 
	C886.199890,204.962234 886.277405,210.884933 885.270691,216.574707 
	C883.347229,227.446350 880.672729,238.185104 878.304688,249.002808 
	C887.409912,249.002808 897.249634,248.714005 907.058655,249.137695 
	C911.285156,249.320236 912.800110,247.692139 914.059326,244.080994 
	C918.481140,231.400055 921.118713,218.420670 921.166870,204.986801 
	C921.265381,177.491470 921.240601,149.995697 921.266602,121.500099 
M608.844727,72.500031 
	C608.844727,57.439777 608.844727,42.379520 608.844727,27.430073 
	C596.736084,27.430073 585.470581,27.430073 574.043945,27.430073 
	C574.043945,81.913177 574.043945,136.126251 574.043945,190.557114 
	C585.643311,190.557114 597.024902,190.557114 608.843567,190.557114 
	C608.843567,151.350708 608.843567,112.425377 608.844727,72.500031 
M843.958496,107.120171 
	C848.892212,107.120171 853.825867,107.120171 859.242737,107.120171 
	C859.242737,101.834419 859.242737,96.368774 859.242737,90.903130 
	C859.242737,85.286827 859.242737,79.670517 859.242737,73.994522 
	C856.888489,73.578438 855.080994,72.941948 853.296753,73.001534 
	C847.316101,73.201241 841.258911,73.130905 835.382751,74.091698 
	C808.983398,78.408195 788.188843,95.540825 786.157654,123.786987 
	C784.583923,145.671600 785.548096,167.738831 785.409912,189.725067 
	C785.408264,189.991470 785.751465,190.260010 785.993164,190.614929 
	C797.209961,190.614929 808.478516,190.614929 820.267456,190.614929 
	C820.267456,188.612915 820.267456,186.829834 820.267456,185.046753 
	C820.267395,168.214279 820.249939,151.381805 820.272095,134.549347 
	C820.294067,117.805969 826.510010,110.365204 843.958496,107.120171 
M957.441406,125.499863 
	C957.441406,147.214981 957.441406,168.930115 957.441406,190.586945 
	C969.510193,190.586945 980.762146,190.586945 992.203369,190.586945 
	C992.203369,151.631119 992.203369,112.932213 992.203369,74.316803 
	C980.531067,74.316803 969.138672,74.316803 957.442261,74.316803 
	C957.442261,91.258659 957.442261,107.879257 957.441406,125.499863 
M463.204803,278.612396 
	C454.350372,280.466919 445.495972,282.321442 436.660980,284.171906 
	C438.520142,293.981232 445.514954,288.902344 451.964844,289.062500 
	C446.678558,296.436554 442.333618,302.794434 437.658173,308.899200 
	C435.176270,312.139801 432.475922,315.417145 429.241241,317.829071 
	C424.435944,321.412140 421.366241,319.977478 419.976349,314.146881 
	C419.640045,312.736115 419.546326,311.224640 419.602753,309.769653 
	C420.280334,292.298828 427.957092,278.025787 440.054565,265.915863 
	C442.332916,263.635193 444.952393,260.965820 448.948334,262.268341 
	C448.632507,266.509247 445.911682,270.906860 450.894073,274.068481 
	C455.139893,267.746765 455.149933,260.867676 451.122284,257.481262 
	C446.810852,253.856186 441.709564,254.918518 435.830811,260.661835 
	C435.473541,261.010834 435.051483,261.302216 434.735107,261.683136 
	C424.365997,274.168396 416.012878,287.577393 414.341034,304.277557 
	C413.511719,312.561890 417.071350,320.599945 424.539886,324.150635 
	C426.874481,325.260529 431.072815,325.629944 432.768890,324.274597 
	C436.946106,320.936523 440.250732,316.471680 443.735718,312.316864 
	C445.486420,310.229706 446.865295,307.830658 448.412323,305.572632 
	C448.780884,312.675110 447.899994,319.035339 447.338226,325.423645 
	C446.922302,330.153320 448.413452,331.677124 452.705261,331.769806 
	C454.876770,316.872192 457.046173,301.989044 459.307281,286.476776 
	C463.904022,285.247711 469.558929,283.735718 475.213837,282.223724 
	C475.380463,281.711517 475.547058,281.199280 475.713684,280.687073 
	C474.127625,279.781036 472.629181,278.398407 470.933868,278.086792 
	C468.697052,277.675659 466.305817,278.104767 463.204803,278.612396 
M982.885559,61.686497 
	C989.641602,59.243000 993.242798,54.153469 994.640808,47.366436 
	C996.985596,35.981873 990.619385,25.564657 979.963684,23.157532 
	C969.060059,20.694387 958.075073,26.648039 955.545410,36.821484 
	C953.689636,44.284424 954.573669,51.475449 960.387451,57.182095 
	C966.573486,63.254131 974.021973,64.223701 982.885559,61.686497 
M885.804138,52.408657 
	C891.813232,62.773510 904.058716,66.142326 914.693787,60.356392 
	C923.171021,55.744419 926.567627,42.483822 921.702393,32.994713 
	C916.834473,23.500401 904.269409,19.897472 894.009521,25.054127 
	C884.604980,29.780880 881.451843,39.519062 885.804138,52.408657 
M808.697571,297.158356 
	C808.011169,302.247101 807.271118,307.329376 806.652588,312.426361 
	C805.954346,318.179626 808.388367,322.492493 813.250488,325.347443 
	C818.116943,328.205048 823.162842,328.073547 827.746643,324.795319 
	C830.683533,322.694946 833.178101,319.980621 835.907776,317.583405 
	C836.741699,316.851135 837.748169,316.315491 838.582520,315.583618 
	C839.304749,314.950165 839.895081,314.166321 841.231445,312.688202 
	C831.224365,314.573914 823.899475,321.691498 813.607910,321.102905 
	C813.992676,315.400177 813.771423,310.026276 814.811890,304.908905 
	C817.718689,290.612823 821.079468,276.406891 824.402405,262.198456 
	C825.836731,256.065521 824.883972,253.878632 818.912537,251.898529 
	C815.549500,266.726379 812.194397,281.519043 808.697571,297.158356 
M1039.684204,288.146301 
	C1036.957520,288.602844 1034.230957,289.059387 1031.592651,289.501160 
	C1030.651611,284.389984 1038.811035,279.199829 1030.002075,274.640106 
	C1028.488892,279.107178 1026.867676,283.242554 1025.719482,287.505341 
	C1024.912842,290.499756 1023.577576,292.194427 1020.290283,292.050751 
	C1019.273621,292.006317 1018.232849,292.513763 1016.355042,292.978394 
	C1018.757324,295.110931 1020.537109,296.690765 1022.316345,298.270203 
	C1021.533813,302.902344 1019.960510,307.671143 1020.237000,312.330170 
	C1020.395813,315.006500 1023.243408,317.880066 1025.583984,319.813171 
	C1026.151978,320.282349 1029.668213,317.585724 1031.509644,315.979095 
	C1032.937866,314.732941 1034.225098,313.059998 1034.925293,311.315918 
	C1035.691284,309.407990 1035.710327,307.200256 1036.054932,305.123199 
	C1035.572998,304.989471 1035.090942,304.855743 1034.608887,304.722015 
	C1031.618896,307.880402 1028.628784,311.038818 1025.638794,314.197235 
	C1025.650879,309.430054 1027.140625,305.198120 1027.507080,300.871002 
	C1027.870239,296.583832 1029.949463,295.331757 1033.732788,294.806396 
	C1038.869995,294.093079 1043.940308,292.898132 1049.272949,291.864471 
	C1047.366577,286.978607 1043.762207,288.102600 1039.684204,288.146301 
M491.328949,320.868896 
	C493.802094,318.008698 496.275238,315.148499 498.416321,312.672272 
	C500.474091,314.631226 502.262909,316.334137 504.017761,318.004700 
	C505.414734,310.546173 506.622742,304.145508 507.809784,297.740936 
	C508.551117,293.741211 506.874512,291.533630 503.564606,290.997589 
	C498.993042,298.766327 494.668762,306.114807 490.344513,313.463257 
	C489.769684,313.242188 489.194855,313.021118 488.620026,312.800049 
	C489.621307,308.527435 490.494843,304.219513 491.663605,299.993256 
	C492.630920,296.495422 492.299805,293.938202 486.867432,292.579315 
	C485.847717,298.915558 484.460358,304.813812 484.081879,310.776123 
	C483.795074,315.294128 486.058960,319.063751 491.328949,320.868896 
M1102.898438,311.503662 
	C1095.192505,317.065674 1092.749146,316.642395 1091.135742,309.400635 
	C1097.776855,308.869629 1102.689087,305.045593 1106.991455,300.498047 
	C1107.935181,299.500610 1107.990723,296.685089 1107.288696,295.296326 
	C1105.360352,291.481110 1100.172852,289.975494 1096.598145,292.565521 
	C1093.067749,295.123566 1089.759888,298.357178 1087.316284,301.948883 
	C1084.576172,305.976257 1086.831909,313.674347 1091.084839,317.890259 
	C1094.651611,321.425903 1099.163940,321.166046 1102.515137,318.712067 
	C1106.141846,316.056305 1108.689941,311.904053 1111.575684,308.298248 
	C1111.849121,307.956573 1111.175171,306.856689 1110.765259,305.547607 
	C1108.101318,307.531067 1105.768921,309.267761 1102.898438,311.503662 
M629.472717,313.034393 
	C629.602783,309.392548 630.005188,305.734955 629.795898,302.112732 
	C629.515442,297.257965 626.686707,294.302124 621.937378,293.128143 
	C617.406311,292.008179 615.740356,295.123199 614.053772,298.280457 
	C613.687561,298.965790 613.300720,299.640106 612.923340,300.319489 
	C612.672058,296.094208 611.195007,293.384033 606.133179,293.325806 
	C606.133179,300.646973 605.841003,307.768585 606.335083,314.835205 
	C606.461304,316.641724 609.075806,318.274261 610.547058,319.986755 
	C611.603394,318.457794 613.240967,317.057709 613.613708,315.377136 
	C615.092346,308.709534 618.330383,303.141632 623.037598,298.134003 
	C623.805725,300.114166 623.888550,301.872345 623.787903,303.619934 
	C623.597168,306.934418 622.974243,310.266663 623.212708,313.541870 
	C623.305725,314.819489 625.239014,315.963104 626.334106,317.167786 
	C627.400574,316.089203 628.467041,315.010651 629.472717,313.034393 
M995.146912,309.532257 
	C993.153748,310.985443 991.289001,312.674133 989.141846,313.844971 
	C983.979980,316.659729 981.807983,315.320404 981.366760,309.402039 
	C988.205505,308.699615 993.120789,304.583710 997.517944,299.898590 
	C998.270508,299.096802 997.758728,296.311188 996.944275,294.987701 
	C994.639771,291.243103 990.165466,289.906158 986.650330,292.554871 
	C982.929138,295.358704 979.575745,298.950867 976.933716,302.797577 
	C974.553650,306.262878 977.185974,314.218872 980.857605,317.782928 
	C984.823853,321.632904 989.560120,321.071594 993.179443,318.393188 
	C996.699097,315.788605 999.000122,311.537292 1001.836243,308.009064 
	C1001.385437,307.500702 1000.934631,306.992340 1000.483887,306.483978 
	C998.901123,307.344025 997.318420,308.204071 995.146912,309.532257 
M852.588501,308.815796 
	C853.326233,310.815002 853.799316,312.967407 854.851501,314.784515 
	C857.947510,320.131256 861.961609,321.531830 867.471375,319.503357 
	C872.269531,317.736816 877.322937,310.457611 876.636047,305.671875 
	C872.917053,308.430878 869.556030,311.286163 865.850525,313.586517 
	C860.581848,316.857330 858.315552,315.582092 857.622070,310.780731 
	C862.496094,307.780426 866.960144,305.216949 871.211487,302.339233 
	C873.399841,300.857971 876.037964,298.407410 873.562500,295.895844 
	C871.379639,293.681213 867.707336,291.369232 864.924500,291.624664 
	C858.352661,292.227966 852.104492,301.243408 852.588501,308.815796 
M580.807983,296.079834 
	C575.776123,290.087219 572.523499,289.514496 566.587341,294.400970 
	C563.970764,296.554840 561.766479,299.441589 560.037720,302.384827 
	C557.739502,306.297638 560.026550,313.863556 563.986816,317.822662 
	C567.769287,321.604004 572.391846,321.080292 575.838013,318.570099 
	C579.474670,315.921173 581.918213,311.634338 584.882996,308.063019 
	C584.427185,307.566956 583.971375,307.070862 583.515564,306.574768 
	C582.015564,307.310059 580.413635,307.893280 579.038391,308.814697 
	C576.718506,310.368927 574.675720,312.365509 572.277832,313.768188 
	C567.403870,316.619293 563.767151,314.966125 564.242432,309.403931 
	C570.692871,308.830597 575.413208,305.038757 579.771851,300.774139 
	C580.637085,299.927582 580.610413,298.169464 580.807983,296.079834 
M538.410950,295.878967 
	C535.201172,300.392365 531.991394,304.905792 528.781616,309.419189 
	C528.320679,309.268982 527.859802,309.118744 527.398865,308.968536 
	C528.262695,304.559570 528.953003,300.107361 530.037903,295.753510 
	C531.185791,291.146912 530.266174,289.433258 524.609863,288.015137 
	C523.782654,294.638916 522.371887,301.175842 522.383545,307.710205 
	C522.390076,311.354736 524.341003,315.229492 526.199402,318.563751 
	C527.711487,321.276794 529.916382,320.488037 531.582947,317.950928 
	C536.912964,309.836670 542.247681,301.722412 547.767151,293.737091 
	C550.543152,289.720917 550.038635,288.217194 544.761475,286.882721 
	C542.833557,289.694366 540.884827,292.536316 538.410950,295.878967 
M744.316223,306.050659 
	C747.228760,300.163666 750.743042,294.928680 758.302307,294.234772 
	C753.319519,287.136444 750.375366,288.043823 741.958496,298.054382 
	C740.197388,295.970398 738.342712,293.775726 736.488037,291.581085 
	C735.988953,291.880157 735.489868,292.179260 734.990784,292.478333 
	C734.990784,299.416321 735.229248,306.365448 734.905640,313.288330 
	C734.695068,317.792389 736.689941,319.847656 740.114380,320.655273 
	C741.447144,315.828430 742.700745,311.288239 744.316223,306.050659 
M1069.811768,313.259674 
	C1069.517822,311.324585 1068.877930,309.369568 1068.987793,307.457703 
	C1069.557983,297.538879 1070.384766,287.634979 1070.985474,277.717651 
	C1071.264404,273.110779 1069.974976,272.066071 1065.088135,272.578217 
	C1065.088135,275.032562 1065.202881,277.516174 1065.068726,279.986298 
	C1064.448120,291.405670 1063.592163,302.815094 1063.166992,314.240967 
	C1062.970703,319.521179 1064.293701,320.336304 1070.062012,319.784546 
	C1070.062012,317.897644 1070.062012,315.970490 1069.811768,313.259674 
M1129.130859,298.680389 
	C1129.049438,303.823853 1129.157471,308.979431 1128.828247,314.106995 
	C1128.551392,318.419220 1130.848755,319.865204 1134.643066,320.586639 
	C1135.707886,308.381989 1139.101562,297.922424 1153.174316,293.200104 
	C1150.305420,291.684845 1147.964722,289.519440 1146.860840,290.029694 
	C1142.555176,292.019958 1138.641113,294.857666 1135.078491,297.071350 
	C1133.993408,295.817017 1132.164917,293.703156 1130.336426,291.589264 
	C1129.935059,291.859772 1129.533813,292.130310 1129.132568,292.400818 
	C1129.132568,294.181305 1129.132568,295.961823 1129.130859,298.680389 
M689.890625,314.513611 
	C689.479492,311.962646 688.612671,309.389069 688.737915,306.864716 
	C689.220886,297.136597 689.986450,287.421600 690.719849,277.707214 
	C691.023438,273.685669 689.354614,271.812286 685.194946,272.113647 
	C685.009644,275.673370 684.835815,279.126007 684.649109,282.577942 
	C684.068176,293.318024 683.496338,304.058685 682.889893,314.797333 
	C682.712585,317.936859 683.870667,319.959412 687.208191,320.233368 
	C691.399475,320.577423 689.371765,317.069763 689.890625,314.513611 
M714.323242,316.305267 
	C714.533813,309.225098 714.795959,302.145966 714.938293,295.064423 
	C715.049255,289.541107 713.863220,288.555542 708.701355,289.630066 
	C708.448608,294.354675 708.153076,299.094299 707.953735,303.837952 
	C707.773621,308.124115 707.397400,312.440521 707.761414,316.687561 
	C707.870239,317.957733 710.039673,319.362244 711.561096,320.014893 
	C712.030090,320.216095 713.480042,318.130676 714.323242,316.305267 
M651.095398,315.128265 
	C650.717041,318.147858 651.947693,320.160004 655.060181,319.992798 
	C656.139954,319.934814 657.972229,318.295074 658.030823,317.294128 
	C658.482605,309.571014 658.704224,301.827911 658.743591,294.089752 
	C658.764404,289.994965 656.771667,287.996521 652.369141,289.451843 
	C651.933411,297.762146 651.502197,305.986389 651.095398,315.128265 
M657.590027,268.957367 
	C655.746521,272.797302 653.678040,276.555695 652.233215,280.540161 
	C651.911255,281.428009 653.567017,283.412445 654.760254,284.264648 
	C655.178406,284.563293 657.535583,283.235046 657.980164,282.205994 
	C659.354736,279.024170 660.146301,275.596558 661.331848,272.325165 
	C662.516846,269.055206 661.316284,267.987244 657.590027,268.957367 
M714.908936,268.353851 
	C712.664185,272.597992 710.279480,276.780151 708.340515,281.159698 
	C708.079407,281.749420 709.875427,283.746552 711.080811,284.291840 
	C711.741638,284.590790 713.741272,283.464966 714.131775,282.551636 
	C715.556885,279.219116 716.811340,275.760162 717.574158,272.228760 
	C717.818726,271.096466 716.342712,269.592499 714.908936,268.353851 
M493.832733,282.625580 
	C491.930878,282.420746 490.029022,282.215942 488.127167,282.011108 
	C488.196960,283.851105 487.528320,286.565674 488.476044,287.365967 
	C491.237244,289.697540 492.259766,286.358734 493.725922,284.847290 
	C493.999390,284.565338 493.883026,283.905182 493.832733,282.625580 
M501.285034,288.626282 
	C504.006317,287.296783 505.905548,285.499847 503.464264,282.542389 
	C502.837158,281.782654 500.332642,281.363922 499.911041,281.849091 
	C497.902313,284.160614 496.926056,286.768219 501.285034,288.626282 
z"/>
<path fill="#48C575" opacity="1.000000" stroke="none" 
	d="
M276.000000,20.820469 
	C291.665741,20.821095 306.831726,20.768482 321.997162,20.836697 
	C338.961853,20.913000 350.886475,32.837708 350.892731,49.855930 
	C350.926819,142.350281 350.926971,234.844635 350.892242,327.338989 
	C350.885864,344.337433 338.979919,356.215576 321.887878,356.222870 
	C226.560379,356.263641 131.232834,356.261597 35.905342,356.224213 
	C18.372669,356.217316 6.981770,344.608643 6.980240,326.971497 
	C6.972232,234.643799 6.971595,142.316116 6.981068,49.988419 
	C6.982869,32.433365 18.475033,20.841778 36.015003,20.835182 
	C115.843323,20.805164 195.671661,20.821121 276.000000,20.820469 
M97.903862,200.378784 
	C92.131042,199.447723 91.559860,203.475098 91.394562,207.909821 
	C86.843704,206.662033 82.711792,205.460419 78.544212,204.398804 
	C63.661823,200.607727 65.140541,198.823578 65.024193,215.227539 
	C64.998306,218.876770 66.639328,220.705688 70.041023,221.543060 
	C75.689751,222.933563 81.244659,224.748611 86.936531,225.905365 
	C90.824844,226.695572 91.868858,228.547485 91.830078,232.382446 
	C91.641396,251.044907 91.579842,269.712524 91.811363,288.374146 
	C92.001160,303.672546 101.731140,313.045471 117.068642,313.135803 
	C130.733215,313.216278 144.398621,313.154236 158.063660,313.153564 
	C191.226364,313.151978 224.389465,313.244415 257.551544,313.099457 
	C270.380768,313.043396 280.340271,304.448456 280.967133,291.909424 
	C281.789703,275.455933 281.430908,258.944366 281.637512,242.458496 
	C281.699738,237.493011 280.230591,231.312668 282.625580,227.924240 
	C284.813934,224.828186 291.266266,224.711594 295.861847,223.358063 
	C308.498352,219.636261 308.405487,219.655731 307.909058,206.425369 
	C307.750214,202.192429 305.923981,201.189819 302.168274,202.247787 
	C295.519562,204.120712 288.850403,205.921021 282.168335,207.757614 
	C280.705475,200.400681 280.705475,200.382095 273.300446,200.381439 
	C215.140717,200.376328 156.980972,200.378906 97.903862,200.378784 
M185.285629,179.133377 
	C193.735245,179.945709 202.182724,180.781006 210.634888,181.565933 
	C232.671295,183.612366 254.707733,185.659042 276.749725,187.643753 
	C279.758484,187.914688 281.781036,186.162292 280.085114,183.463898 
	C277.503510,179.356201 274.727509,174.568558 270.759094,172.300400 
	C262.322052,167.478210 253.400299,162.754974 244.069351,160.408844 
	C227.028687,156.124222 209.656723,152.694305 192.220642,150.562622 
	C170.545074,147.912643 148.669693,147.795685 127.046509,151.991730 
	C117.212555,153.900040 107.377625,156.156708 100.322174,164.153625 
	C99.144394,165.488571 97.916801,167.992722 98.429077,169.265732 
	C98.945290,170.548492 101.548378,171.519318 103.325989,171.687531 
	C130.331909,174.242920 157.352448,176.643845 185.285629,179.133377 
M87.650581,181.991592 
	C85.671310,180.771500 83.600922,179.676468 81.727402,178.311249 
	C68.413879,168.609894 65.923294,154.549683 75.938599,141.417709 
	C79.896233,136.228500 85.393204,132.177338 90.377365,127.823318 
	C92.620010,125.864220 95.323845,124.433052 97.818420,122.762344 
	C97.558342,122.250412 97.298271,121.738480 97.038200,121.226540 
	C87.485550,125.315887 77.773468,129.076599 68.434731,133.606918 
	C61.907364,136.773407 56.940582,141.985931 53.505497,148.555099 
	C47.540047,159.963257 49.945782,171.345459 59.898216,178.153061 
	C68.465828,184.013428 84.459335,187.308487 95.316589,185.321518 
	C92.824242,184.226746 90.584557,183.242935 87.650581,181.991592 
M215.295822,146.485931 
	C218.578461,146.429062 220.055710,144.569061 220.331512,141.477448 
	C220.567993,138.826767 220.779053,136.171951 221.101486,133.531204 
	C221.633438,129.174545 219.296127,127.467575 215.374344,127.137894 
	C206.421524,126.385307 197.473343,125.572502 188.515228,124.889748 
	C175.457748,123.894554 175.508072,123.938080 174.540955,136.941299 
	C174.250153,140.851303 175.656250,142.873535 179.696228,143.210785 
	C191.302048,144.179672 202.896240,145.287674 215.295822,146.485931 
M94.851173,141.018326 
	C94.848885,141.257767 94.846588,141.497223 94.844299,141.736679 
	C95.322403,141.702637 95.861549,141.801987 96.269760,141.615204 
	C109.010292,135.785172 121.265419,129.183197 131.900482,119.868675 
	C138.364059,114.207680 144.197479,108.121681 147.017014,99.787941 
	C149.971848,91.054352 147.224533,84.874489 138.187332,83.261978 
	C129.190521,81.656693 119.870346,81.863647 110.691956,81.275978 
	C110.636627,81.738319 110.581299,82.200653 110.525970,82.662994 
	C113.777313,83.771103 117.085434,84.737282 120.270302,86.011543 
	C135.236465,91.999451 137.929276,100.682152 126.896263,112.365273 
	C117.243668,122.586617 105.930054,131.239365 94.851173,141.018326 
M96.870964,80.840889 
	C101.168999,75.811356 105.467026,70.781822 109.601349,65.943863 
	C101.855202,68.189941 93.718391,70.870453 87.830421,77.783691 
	C82.024132,84.601044 82.578987,93.760559 88.949883,98.591019 
	C94.145065,102.530045 103.169212,104.553329 109.866058,103.280609 
	C96.970650,96.349495 94.380852,92.150490 96.870964,80.840889 
z"/>
<path fill="#121212" opacity="1.000000" stroke="none" 
	d="
M1209.122803,101.999954 
	C1209.122681,92.532433 1209.122681,83.564911 1209.122681,74.299522 
	C1220.800903,74.299522 1232.186646,74.299522 1243.912354,74.299522 
	C1243.951294,74.958511 1244.020264,75.577675 1244.020142,76.196838 
	C1244.017944,113.512329 1244.299194,150.831039 1243.884399,188.141998 
	C1243.667236,207.670303 1235.291992,223.539383 1218.799805,234.429398 
	C1208.736328,241.074539 1197.364624,244.762650 1185.294189,244.160461 
	C1173.401978,243.567184 1161.579346,241.620865 1149.718018,240.343399 
	C1146.628418,240.010651 1145.653198,238.602432 1145.718750,235.439209 
	C1145.935181,224.994629 1145.800293,214.542770 1145.800293,203.314835 
	C1157.854980,209.335403 1170.211792,210.569366 1182.724854,210.444916 
	C1201.057373,210.262604 1211.050049,198.498383 1208.596313,179.679581 
	C1202.704468,185.740356 1195.839600,189.383423 1187.859985,190.988342 
	C1166.440552,195.296417 1143.303589,184.122650 1133.099609,163.326889 
	C1129.372070,155.730103 1126.253418,147.068451 1125.860962,138.750870 
	C1124.851807,117.361572 1125.523438,95.892975 1125.523438,74.227432 
	C1136.928955,74.227432 1148.328491,74.227432 1160.117920,74.227432 
	C1160.117920,92.706535 1160.078979,110.985802 1160.150757,129.264633 
	C1160.165039,132.913773 1160.362915,136.596039 1160.887939,140.203064 
	C1162.533813,151.507248 1168.871216,157.801941 1179.563110,159.062408 
	C1192.106445,160.541153 1202.872925,155.240906 1206.701904,145.126724 
	C1208.142334,141.321960 1208.867432,137.063034 1208.997681,132.981750 
	C1209.321533,122.830170 1209.115845,112.661674 1209.122803,101.999954 
z"/>
<path fill="#131313" opacity="1.000000" stroke="none" 
	d="
M538.316223,155.485596 
	C540.700562,167.447098 543.029114,178.952591 545.432983,190.830048 
	C535.478699,190.830048 524.587280,190.901825 513.700745,190.703751 
	C512.754822,190.686554 511.438202,189.049088 510.983612,187.892990 
	C509.184204,183.316849 507.659393,178.632706 505.963135,173.789703 
	C488.983551,198.679367 455.334808,195.257965 436.253601,179.864914 
	C407.253723,156.470383 406.130219,109.695366 434.388702,86.536766 
	C449.259308,74.349907 467.035736,70.891113 485.622467,73.490891 
	C519.190796,78.186188 536.835388,99.589500 537.854065,135.547012 
	C538.038025,142.039841 538.127441,148.535339 538.316223,155.485596 
M481.683716,105.696312 
	C473.540436,104.542778 465.731781,105.308678 458.907990,110.337540 
	C449.499542,117.271194 446.265961,130.791977 450.826538,143.292953 
	C454.860199,154.349609 464.441589,160.063904 477.684723,159.311081 
	C491.391632,158.531891 500.070557,152.333633 501.625885,140.549118 
	C502.467560,134.171982 501.801361,127.266594 500.255920,120.983047 
	C498.094818,112.196266 491.759521,107.000374 481.683716,105.696312 
z"/>
<path fill="#131313" opacity="1.000000" stroke="none" 
	d="
M715.630066,191.779312 
	C702.783447,192.419937 690.498718,191.982376 678.664917,187.803070 
	C653.564758,178.938538 639.603271,158.035995 640.474060,130.798141 
	C641.545166,97.294701 664.550903,74.387146 698.208862,72.950172 
	C713.111023,72.313950 727.044067,74.890739 739.408508,83.613304 
	C759.132812,97.527946 759.294128,125.187241 739.143616,138.271133 
	C721.882996,149.478531 702.893738,151.515030 683.158203,145.250641 
	C681.465332,144.713303 679.757263,144.224106 677.303467,143.486130 
	C679.972778,150.934753 685.175537,155.061539 691.622864,155.942657 
	C701.421082,157.281708 711.434509,157.591599 721.340637,157.420700 
	C729.071472,157.287292 736.778320,155.757858 744.678467,154.827271 
	C744.678467,165.319183 744.678467,175.788773 744.678467,187.332642 
	C735.291992,188.779327 725.694336,190.258575 715.630066,191.779312 
M686.383301,110.728157 
	C683.873474,112.966942 681.363647,115.205734 678.241821,117.990433 
	C690.025879,121.718727 700.784912,123.145218 711.769653,120.803352 
	C715.197083,120.072647 718.805969,118.503853 718.776245,114.180611 
	C718.747131,109.945587 715.454834,108.122719 711.814514,107.553246 
	C703.330017,106.225960 694.889160,106.037918 686.383301,110.728157 
z"/>
<path fill="#131313" opacity="1.000000" stroke="none" 
	d="
M1030.155273,88.000229 
	C1030.144287,76.019363 1029.467285,64.443535 1033.343506,53.362724 
	C1040.905396,31.745838 1057.034668,20.188829 1078.822998,16.188004 
	C1086.870483,14.710290 1095.254272,15.063250 1103.840820,14.560398 
	C1103.840820,26.793177 1103.840820,37.702934 1103.840820,49.055363 
	C1091.827515,47.805969 1079.777832,47.345314 1070.694580,57.316437 
	C1065.552734,62.960789 1064.938477,70.124741 1065.263794,77.754669 
	C1074.701782,77.754669 1083.976807,77.754669 1093.615234,77.754669 
	C1093.615234,88.647072 1093.615234,99.215561 1093.615234,110.389359 
	C1084.419189,110.389359 1075.033203,110.389359 1065.240234,110.389359 
	C1065.240234,137.414795 1065.240234,163.843338 1065.240234,190.553223 
	C1053.430176,190.553223 1042.041748,190.553223 1030.154907,190.553223 
	C1030.154907,156.387985 1030.154907,122.444069 1030.155273,88.000229 
z"/>
<path fill="#131313" opacity="1.000000" stroke="none" 
	d="
M921.266602,122.000107 
	C921.240601,149.995697 921.265381,177.491470 921.166870,204.986801 
	C921.118713,218.420670 918.481140,231.400055 914.059326,244.080994 
	C912.800110,247.692139 911.285156,249.320236 907.058655,249.137695 
	C897.249634,248.714005 887.409912,249.002808 878.304688,249.002808 
	C880.672729,238.185104 883.347229,227.446350 885.270691,216.574707 
	C886.277405,210.884933 886.199890,204.962234 886.210693,199.143982 
	C886.284119,159.483368 886.250854,119.822548 886.251953,80.161789 
	C886.252014,78.347618 886.251953,76.533447 886.251953,74.359116 
	C897.870728,74.359116 909.258850,74.359116 921.266602,74.359116 
	C921.266602,90.003647 921.266602,105.751877 921.266602,122.000107 
z"/>
<path fill="#131313" opacity="1.000000" stroke="none" 
	d="
M608.844116,73.000031 
	C608.843567,112.425377 608.843567,151.350708 608.843567,190.557114 
	C597.024902,190.557114 585.643311,190.557114 574.043945,190.557114 
	C574.043945,136.126251 574.043945,81.913177 574.043945,27.430073 
	C585.470581,27.430073 596.736084,27.430073 608.844727,27.430073 
	C608.844727,42.379520 608.844727,57.439777 608.844116,73.000031 
z"/>
<path fill="#131313" opacity="1.000000" stroke="none" 
	d="
M843.511841,107.151245 
	C826.510010,110.365204 820.294067,117.805969 820.272095,134.549347 
	C820.249939,151.381805 820.267395,168.214279 820.267456,185.046753 
	C820.267456,186.829834 820.267456,188.612915 820.267456,190.614929 
	C808.478516,190.614929 797.209961,190.614929 785.993164,190.614929 
	C785.751465,190.260010 785.408264,189.991470 785.409912,189.725067 
	C785.548096,167.738831 784.583923,145.671600 786.157654,123.786987 
	C788.188843,95.540825 808.983398,78.408195 835.382751,74.091698 
	C841.258911,73.130905 847.316101,73.201241 853.296753,73.001534 
	C855.080994,72.941948 856.888489,73.578438 859.242737,73.994522 
	C859.242737,79.670517 859.242737,85.286827 859.242737,90.903130 
	C859.242737,96.368774 859.242737,101.834419 859.242737,107.120171 
	C853.825867,107.120171 848.892212,107.120171 843.511841,107.151245 
z"/>
<path fill="#151515" opacity="1.000000" stroke="none" 
	d="
M957.441833,124.999855 
	C957.442261,107.879257 957.442261,91.258659 957.442261,74.316803 
	C969.138672,74.316803 980.531067,74.316803 992.203369,74.316803 
	C992.203369,112.932213 992.203369,151.631119 992.203369,190.586945 
	C980.762146,190.586945 969.510193,190.586945 957.441406,190.586945 
	C957.441406,168.930115 957.441406,147.214981 957.441833,124.999855 
z"/>
<path fill="#202020" opacity="1.000000" stroke="none" 
	d="
M463.592896,278.392548 
	C466.305817,278.104767 468.697052,277.675659 470.933868,278.086792 
	C472.629181,278.398407 474.127625,279.781036 475.713684,280.687073 
	C475.547058,281.199280 475.380463,281.711517 475.213837,282.223724 
	C469.558929,283.735718 463.904022,285.247711 459.307281,286.476776 
	C457.046173,301.989044 454.876770,316.872192 452.705261,331.769806 
	C448.413452,331.677124 446.922302,330.153320 447.338226,325.423645 
	C447.899994,319.035339 448.780884,312.675110 448.412323,305.572632 
	C446.865295,307.830658 445.486420,310.229706 443.735718,312.316864 
	C440.250732,316.471680 436.946106,320.936523 432.768890,324.274597 
	C431.072815,325.629944 426.874481,325.260529 424.539886,324.150635 
	C417.071350,320.599945 413.511719,312.561890 414.341034,304.277557 
	C416.012878,287.577393 424.365997,274.168396 434.735107,261.683136 
	C435.051483,261.302216 435.473541,261.010834 435.830811,260.661835 
	C441.709564,254.918518 446.810852,253.856186 451.122284,257.481262 
	C455.149933,260.867676 455.139893,267.746765 450.894073,274.068481 
	C445.911682,270.906860 448.632507,266.509247 448.948334,262.268341 
	C444.952393,260.965820 442.332916,263.635193 440.054565,265.915863 
	C427.957092,278.025787 420.280334,292.298828 419.602753,309.769653 
	C419.546326,311.224640 419.640045,312.736115 419.976349,314.146881 
	C421.366241,319.977478 424.435944,321.412140 429.241241,317.829071 
	C432.475922,315.417145 435.176270,312.139801 437.658173,308.899200 
	C442.333618,302.794434 446.678558,296.436554 451.964844,289.062500 
	C445.514954,288.902344 438.520142,293.981232 436.660980,284.171906 
	C445.495972,282.321442 454.350372,280.466919 463.592896,278.392548 
z"/>
<path fill="#131313" opacity="1.000000" stroke="none" 
	d="
M982.498413,61.804710 
	C974.021973,64.223701 966.573486,63.254131 960.387451,57.182095 
	C954.573669,51.475449 953.689636,44.284424 955.545410,36.821484 
	C958.075073,26.648039 969.060059,20.694387 979.963684,23.157532 
	C990.619385,25.564657 996.985596,35.981873 994.640808,47.366436 
	C993.242798,54.153469 989.641602,59.243000 982.498413,61.804710 
z"/>
<path fill="#131313" opacity="1.000000" stroke="none" 
	d="
M885.585449,52.077682 
	C881.451843,39.519062 884.604980,29.780880 894.009521,25.054127 
	C904.269409,19.897472 916.834473,23.500401 921.702393,32.994713 
	C926.567627,42.483822 923.171021,55.744419 914.693787,60.356392 
	C904.058716,66.142326 891.813232,62.773510 885.585449,52.077682 
z"/>
<path fill="#1E1E1E" opacity="1.000000" stroke="none" 
	d="
M808.768433,296.735046 
	C812.194397,281.519043 815.549500,266.726379 818.912537,251.898529 
	C824.883972,253.878632 825.836731,256.065521 824.402405,262.198456 
	C821.079468,276.406891 817.718689,290.612823 814.811890,304.908905 
	C813.771423,310.026276 813.992676,315.400177 813.607910,321.102905 
	C823.899475,321.691498 831.224365,314.573914 841.231445,312.688202 
	C839.895081,314.166321 839.304749,314.950165 838.582520,315.583618 
	C837.748169,316.315491 836.741699,316.851135 835.907776,317.583405 
	C833.178101,319.980621 830.683533,322.694946 827.746643,324.795319 
	C823.162842,328.073547 818.116943,328.205048 813.250488,325.347443 
	C808.388367,322.492493 805.954346,318.179626 806.652588,312.426361 
	C807.271118,307.329376 808.011169,302.247101 808.768433,296.735046 
z"/>
<path fill="#202020" opacity="1.000000" stroke="none" 
	d="
M1040.133911,288.129333 
	C1043.762207,288.102600 1047.366577,286.978607 1049.272949,291.864471 
	C1043.940308,292.898132 1038.869995,294.093079 1033.732788,294.806396 
	C1029.949463,295.331757 1027.870239,296.583832 1027.507080,300.871002 
	C1027.140625,305.198120 1025.650879,309.430054 1025.638794,314.197235 
	C1028.628784,311.038818 1031.618896,307.880402 1034.608887,304.722015 
	C1035.090942,304.855743 1035.572998,304.989471 1036.054932,305.123199 
	C1035.710327,307.200256 1035.691284,309.407990 1034.925293,311.315918 
	C1034.225098,313.059998 1032.937866,314.732941 1031.509644,315.979095 
	C1029.668213,317.585724 1026.151978,320.282349 1025.583984,319.813171 
	C1023.243408,317.880066 1020.395813,315.006500 1020.237000,312.330170 
	C1019.960510,307.671143 1021.533813,302.902344 1022.316345,298.270203 
	C1020.537109,296.690765 1018.757324,295.110931 1016.355042,292.978394 
	C1018.232849,292.513763 1019.273621,292.006317 1020.290283,292.050751 
	C1023.577576,292.194427 1024.912842,290.499756 1025.719482,287.505341 
	C1026.867676,283.242554 1028.488892,279.107178 1030.002075,274.640106 
	C1038.811035,279.199829 1030.651611,284.389984 1031.592651,289.501160 
	C1034.230957,289.059387 1036.957520,288.602844 1040.133911,288.129333 
z"/>
<path fill="#1F1F1F" opacity="1.000000" stroke="none" 
	d="
M490.967773,320.895508 
	C486.058960,319.063751 483.795074,315.294128 484.081879,310.776123 
	C484.460358,304.813812 485.847717,298.915558 486.867432,292.579315 
	C492.299805,293.938202 492.630920,296.495422 491.663605,299.993256 
	C490.494843,304.219513 489.621307,308.527435 488.620026,312.800049 
	C489.194855,313.021118 489.769684,313.242188 490.344513,313.463257 
	C494.668762,306.114807 498.993042,298.766327 503.564606,290.997589 
	C506.874512,291.533630 508.551117,293.741211 507.809784,297.740936 
	C506.622742,304.145508 505.414734,310.546173 504.017761,318.004700 
	C502.262909,316.334137 500.474091,314.631226 498.416321,312.672272 
	C496.275238,315.148499 493.802094,318.008698 490.967773,320.895508 
z"/>
<path fill="#1E1E1E" opacity="1.000000" stroke="none" 
	d="
M1103.167480,311.254059 
	C1105.768921,309.267761 1108.101318,307.531067 1110.765259,305.547607 
	C1111.175171,306.856689 1111.849121,307.956573 1111.575684,308.298248 
	C1108.689941,311.904053 1106.141846,316.056305 1102.515137,318.712067 
	C1099.163940,321.166046 1094.651611,321.425903 1091.084839,317.890259 
	C1086.831909,313.674347 1084.576172,305.976257 1087.316284,301.948883 
	C1089.759888,298.357178 1093.067749,295.123566 1096.598145,292.565521 
	C1100.172852,289.975494 1105.360352,291.481110 1107.288696,295.296326 
	C1107.990723,296.685089 1107.935181,299.500610 1106.991455,300.498047 
	C1102.689087,305.045593 1097.776855,308.869629 1091.135742,309.400635 
	C1092.749146,316.642395 1095.192505,317.065674 1103.167480,311.254059 
z"/>
<path fill="#1E1E1E" opacity="1.000000" stroke="none" 
	d="
M629.503052,313.483246 
	C628.467041,315.010651 627.400574,316.089203 626.334106,317.167786 
	C625.239014,315.963104 623.305725,314.819489 623.212708,313.541870 
	C622.974243,310.266663 623.597168,306.934418 623.787903,303.619934 
	C623.888550,301.872345 623.805725,300.114166 623.037598,298.134003 
	C618.330383,303.141632 615.092346,308.709534 613.613708,315.377136 
	C613.240967,317.057709 611.603394,318.457794 610.547058,319.986755 
	C609.075806,318.274261 606.461304,316.641724 606.335083,314.835205 
	C605.841003,307.768585 606.133179,300.646973 606.133179,293.325806 
	C611.195007,293.384033 612.672058,296.094208 612.923340,300.319489 
	C613.300720,299.640106 613.687561,298.965790 614.053772,298.280457 
	C615.740356,295.123199 617.406311,292.008179 621.937378,293.128143 
	C626.686707,294.302124 629.515442,297.257965 629.795898,302.112732 
	C630.005188,305.734955 629.602783,309.392548 629.503052,313.483246 
z"/>
<path fill="#1E1E1E" opacity="1.000000" stroke="none" 
	d="
M949.492432,312.587830 
	C952.339050,312.742767 955.185669,312.897675 958.065857,313.054443 
	C957.980835,314.188293 958.026855,314.726257 957.925903,314.755371 
	C951.536804,316.600464 945.180664,318.608887 938.696899,320.035645 
	C937.427063,320.315063 934.867615,318.633789 934.349426,317.296387 
	C933.863159,316.041565 934.797546,313.437164 935.967834,312.484070 
	C940.073608,309.140350 944.608826,306.330566 948.860779,303.156952 
	C950.783081,301.722137 952.422363,299.908051 954.190002,298.266052 
	C953.995789,297.772339 953.801575,297.278656 953.607361,296.784973 
	C950.567078,297.395172 947.516418,297.958679 944.490845,298.634491 
	C942.876953,298.995056 941.274719,299.990906 939.726074,299.879852 
	C938.440247,299.787598 936.570801,298.724182 936.209106,297.664520 
	C935.905884,296.776337 937.150085,294.519684 938.155579,294.176300 
	C941.729248,292.955902 945.492798,291.643494 949.186462,291.637756 
	C951.899536,291.633514 955.991089,292.929443 956.975342,294.894592 
	C958.152222,297.244232 957.539856,301.422638 956.116577,303.896637 
	C954.480652,306.740295 951.108826,308.585297 947.934265,311.186279 
	C946.943359,311.847961 946.509094,312.187378 945.282837,313.145935 
	C947.376648,312.868347 948.434509,312.728088 949.492432,312.587830 
z"/>
<path fill="#1E1E1E" opacity="1.000000" stroke="none" 
	d="
M995.441284,309.298187 
	C997.318420,308.204071 998.901123,307.344025 1000.483887,306.483978 
	C1000.934631,306.992340 1001.385437,307.500702 1001.836243,308.009064 
	C999.000122,311.537292 996.699097,315.788605 993.179443,318.393188 
	C989.560120,321.071594 984.823853,321.632904 980.857605,317.782928 
	C977.185974,314.218872 974.553650,306.262878 976.933716,302.797577 
	C979.575745,298.950867 982.929138,295.358704 986.650330,292.554871 
	C990.165466,289.906158 994.639771,291.243103 996.944275,294.987701 
	C997.758728,296.311188 998.270508,299.096802 997.517944,299.898590 
	C993.120789,304.583710 988.205505,308.699615 981.366760,309.402039 
	C981.807983,315.320404 983.979980,316.659729 989.141846,313.844971 
	C991.289001,312.674133 993.153748,310.985443 995.441284,309.298187 
z"/>
<path fill="#1E1E1E" opacity="1.000000" stroke="none" 
	d="
M852.478882,308.431458 
	C852.104492,301.243408 858.352661,292.227966 864.924500,291.624664 
	C867.707336,291.369232 871.379639,293.681213 873.562500,295.895844 
	C876.037964,298.407410 873.399841,300.857971 871.211487,302.339233 
	C866.960144,305.216949 862.496094,307.780426 857.622070,310.780731 
	C858.315552,315.582092 860.581848,316.857330 865.850525,313.586517 
	C869.556030,311.286163 872.917053,308.430878 876.636047,305.671875 
	C877.322937,310.457611 872.269531,317.736816 867.471375,319.503357 
	C861.961609,321.531830 857.947510,320.131256 854.851501,314.784515 
	C853.799316,312.967407 853.326233,310.815002 852.478882,308.431458 
z"/>
<path fill="#1E1E1E" opacity="1.000000" stroke="none" 
	d="
M580.901489,296.455750 
	C580.610413,298.169464 580.637085,299.927582 579.771851,300.774139 
	C575.413208,305.038757 570.692871,308.830597 564.242493,309.404053 
	C563.767151,314.966125 567.403870,316.619293 572.277832,313.768188 
	C574.675720,312.365509 576.718506,310.368927 579.038391,308.814697 
	C580.413635,307.893280 582.015564,307.310059 583.515564,306.574768 
	C583.971375,307.070862 584.427185,307.566956 584.882996,308.063019 
	C581.918213,311.634338 579.474670,315.921173 575.838013,318.570099 
	C572.391846,321.080292 567.769287,321.604004 563.986816,317.822662 
	C560.026550,313.863556 557.739502,306.297638 560.037720,302.384827 
	C561.766479,299.441589 563.970764,296.554840 566.587341,294.400970 
	C572.523499,289.514496 575.776123,290.087219 580.901489,296.455750 
z"/>
<path fill="#1F1F1F" opacity="1.000000" stroke="none" 
	d="
M908.403809,312.424377 
	C911.166870,312.659088 913.929932,312.893768 917.235413,313.174530 
	C916.331482,314.387329 915.916687,315.580536 915.212952,315.786530 
	C909.907043,317.339569 904.600281,319.036743 899.169067,319.934723 
	C897.269714,320.248718 894.375916,319.000305 893.072693,317.486847 
	C890.771240,314.813995 893.388184,313.167450 895.479187,311.717804 
	C899.975159,308.600891 904.510437,305.534180 908.894104,302.265198 
	C910.436157,301.115295 911.582336,299.434448 912.909302,297.996063 
	C912.733826,297.520050 912.558411,297.044067 912.382935,296.568054 
	C908.266541,297.613281 904.138855,298.616272 900.038025,299.719299 
	C897.511780,300.398804 895.204468,300.515350 894.824829,297.231781 
	C894.711853,296.254578 895.585815,294.430420 896.359131,294.206116 
	C900.469788,293.013794 904.663269,291.713806 908.887573,291.465912 
	C911.135498,291.333984 914.609558,292.660889 915.541443,294.396881 
	C916.736633,296.623352 916.997314,300.582428 915.743958,302.610718 
	C913.742493,305.849915 910.162109,308.113525 906.719055,311.139252 
	C905.802246,311.843689 905.415588,312.198486 904.159912,313.350647 
	C906.363831,312.869598 907.383789,312.646973 908.403809,312.424377 
z"/>
<path fill="#1E1E1E" opacity="1.000000" stroke="none" 
	d="
M538.673584,295.628632 
	C540.884827,292.536316 542.833557,289.694366 544.761475,286.882721 
	C550.038635,288.217194 550.543152,289.720917 547.767151,293.737091 
	C542.247681,301.722412 536.912964,309.836670 531.582947,317.950928 
	C529.916382,320.488037 527.711487,321.276794 526.199402,318.563751 
	C524.341003,315.229492 522.390076,311.354736 522.383545,307.710205 
	C522.371887,301.175842 523.782654,294.638916 524.609863,288.015137 
	C530.266174,289.433258 531.185791,291.146912 530.037903,295.753510 
	C528.953003,300.107361 528.262695,304.559570 527.398865,308.968536 
	C527.859802,309.118744 528.320679,309.268982 528.781616,309.419189 
	C531.991394,304.905792 535.201172,300.392365 538.673584,295.628632 
z"/>
<path fill="#212121" opacity="1.000000" stroke="none" 
	d="
M744.135254,306.399353 
	C742.700745,311.288239 741.447144,315.828430 740.114380,320.655273 
	C736.689941,319.847656 734.695068,317.792389 734.905640,313.288330 
	C735.229248,306.365448 734.990784,299.416321 734.990784,292.478333 
	C735.489868,292.179260 735.988953,291.880157 736.488037,291.581085 
	C738.342712,293.775726 740.197388,295.970398 741.958496,298.054382 
	C750.375366,288.043823 753.319519,287.136444 758.302307,294.234772 
	C750.743042,294.928680 747.228760,300.163666 744.135254,306.399353 
z"/>
<path fill="#212121" opacity="1.000000" stroke="none" 
	d="
M1069.936890,313.651489 
	C1070.062012,315.970490 1070.062012,317.897644 1070.062012,319.784546 
	C1064.293701,320.336304 1062.970703,319.521179 1063.166992,314.240967 
	C1063.592163,302.815094 1064.448120,291.405670 1065.068726,279.986298 
	C1065.202881,277.516174 1065.088135,275.032562 1065.088135,272.578217 
	C1069.974976,272.066071 1071.264404,273.110779 1070.985474,277.717651 
	C1070.384766,287.634979 1069.557983,297.538879 1068.987793,307.457703 
	C1068.877930,309.369568 1069.517822,311.324585 1069.936890,313.651489 
z"/>
<path fill="#1F1F1F" opacity="1.000000" stroke="none" 
	d="
M1129.131714,298.211365 
	C1129.132568,295.961823 1129.132568,294.181305 1129.132568,292.400818 
	C1129.533813,292.130310 1129.935059,291.859772 1130.336426,291.589264 
	C1132.164917,293.703156 1133.993408,295.817017 1135.078491,297.071350 
	C1138.641113,294.857666 1142.555176,292.019958 1146.860840,290.029694 
	C1147.964722,289.519440 1150.305420,291.684845 1153.174316,293.200104 
	C1139.101562,297.922424 1135.707886,308.381989 1134.643066,320.586639 
	C1130.848755,319.865204 1128.551392,318.419220 1128.828247,314.106995 
	C1129.157471,308.979431 1129.049438,303.823853 1129.131714,298.211365 
z"/>
<path fill="#1F1F1F" opacity="1.000000" stroke="none" 
	d="
M690.046509,314.922211 
	C689.371765,317.069763 691.399475,320.577423 687.208191,320.233368 
	C683.870667,319.959412 682.712585,317.936859 682.889893,314.797333 
	C683.496338,304.058685 684.068176,293.318024 684.649109,282.577942 
	C684.835815,279.126007 685.009644,275.673370 685.194946,272.113647 
	C689.354614,271.812286 691.023438,273.685669 690.719849,277.707214 
	C689.986450,287.421600 689.220886,297.136597 688.737915,306.864716 
	C688.612671,309.389069 689.479492,311.962646 690.046509,314.922211 
z"/>
<path fill="#202020" opacity="1.000000" stroke="none" 
	d="
M714.402039,316.698761 
	C713.480042,318.130676 712.030090,320.216095 711.561096,320.014893 
	C710.039673,319.362244 707.870239,317.957733 707.761414,316.687561 
	C707.397400,312.440521 707.773621,308.124115 707.953735,303.837952 
	C708.153076,299.094299 708.448608,294.354675 708.701355,289.630066 
	C713.863220,288.555542 715.049255,289.541107 714.938293,295.064423 
	C714.795959,302.145966 714.533813,309.225098 714.402039,316.698761 
z"/>
<path fill="#1F1F1F" opacity="1.000000" stroke="none" 
	d="
M651.083130,314.669434 
	C651.502197,305.986389 651.933411,297.762146 652.369141,289.451843 
	C656.771667,287.996521 658.764404,289.994965 658.743591,294.089752 
	C658.704224,301.827911 658.482605,309.571014 658.030823,317.294128 
	C657.972229,318.295074 656.139954,319.934814 655.060181,319.992798 
	C651.947693,320.160004 650.717041,318.147858 651.083130,314.669434 
z"/>
<path fill="#262626" opacity="1.000000" stroke="none" 
	d="
M657.858398,268.704041 
	C661.316284,267.987244 662.516846,269.055206 661.331848,272.325165 
	C660.146301,275.596558 659.354736,279.024170 657.980164,282.205994 
	C657.535583,283.235046 655.178406,284.563293 654.760254,284.264648 
	C653.567017,283.412445 651.911255,281.428009 652.233215,280.540161 
	C653.678040,276.555695 655.746521,272.797302 657.858398,268.704041 
z"/>
<path fill="#262626" opacity="1.000000" stroke="none" 
	d="
M715.281433,268.306213 
	C716.342712,269.592499 717.818726,271.096466 717.574158,272.228760 
	C716.811340,275.760162 715.556885,279.219116 714.131775,282.551636 
	C713.741272,283.464966 711.741638,284.590790 711.080811,284.291840 
	C709.875427,283.746552 708.079407,281.749420 708.340515,281.159698 
	C710.279480,276.780151 712.664185,272.597992 715.281433,268.306213 
z"/>
<path fill="#202020" opacity="1.000000" stroke="none" 
	d="
M493.889648,283.022583 
	C493.883026,283.905182 493.999390,284.565338 493.725922,284.847290 
	C492.259766,286.358734 491.237244,289.697540 488.476044,287.365967 
	C487.528320,286.565674 488.196960,283.851105 488.127167,282.011108 
	C490.029022,282.215942 491.930878,282.420746 493.889648,283.022583 
z"/>
<path fill="#2F2F2F" opacity="1.000000" stroke="none" 
	d="
M500.933350,288.663849 
	C496.926056,286.768219 497.902313,284.160614 499.911041,281.849091 
	C500.332642,281.363922 502.837158,281.782654 503.464264,282.542389 
	C505.905548,285.499847 504.006317,287.296783 500.933350,288.663849 
z"/>
<path fill="#FDFEFE" opacity="1.000000" stroke="none" 
	d="
M98.362549,200.378937 
	C156.980972,200.378906 215.140717,200.376328 273.300446,200.381439 
	C280.705475,200.382095 280.705475,200.400681 282.168335,207.757614 
	C288.850403,205.921021 295.519562,204.120712 302.168274,202.247787 
	C305.923981,201.189819 307.750214,202.192429 307.909058,206.425369 
	C308.405487,219.655731 308.498352,219.636261 295.861847,223.358063 
	C291.266266,224.711594 284.813934,224.828186 282.625580,227.924240 
	C280.230591,231.312668 281.699738,237.493011 281.637512,242.458496 
	C281.430908,258.944366 281.789703,275.455933 280.967133,291.909424 
	C280.340271,304.448456 270.380768,313.043396 257.551544,313.099457 
	C224.389465,313.244415 191.226364,313.151978 158.063660,313.153564 
	C144.398621,313.154236 130.733215,313.216278 117.068642,313.135803 
	C101.731140,313.045471 92.001160,303.672546 91.811363,288.374146 
	C91.579842,269.712524 91.641396,251.044907 91.830078,232.382446 
	C91.868858,228.547485 90.824844,226.695572 86.936531,225.905365 
	C81.244659,224.748611 75.689751,222.933563 70.041023,221.543060 
	C66.639328,220.705688 64.998306,218.876770 65.024193,215.227539 
	C65.140541,198.823578 63.661823,200.607727 78.544212,204.398804 
	C82.711792,205.460419 86.843704,206.662033 91.394562,207.909821 
	C91.559860,203.475098 92.131042,199.447723 98.362549,200.378937 
M155.623795,225.872772 
	C156.194687,221.426163 154.298630,219.481781 149.763641,219.493607 
	C137.770859,219.524887 125.777504,219.352448 113.784477,219.248901 
	C110.209564,219.218033 108.795753,220.965393 108.813980,224.518890 
	C108.902832,241.847504 108.735092,259.178192 108.924202,276.505188 
	C109.027023,285.925751 115.389763,291.954041 124.821381,292.051208 
	C132.818619,292.133606 140.817398,292.080902 148.815445,292.065125 
	C155.194153,292.052551 155.603577,291.686340 155.613190,285.286621 
	C155.642471,265.791351 155.623596,246.295990 155.623795,225.872772 
z"/>
<path fill="#FCFEFD" opacity="1.000000" stroke="none" 
	d="
M184.827606,179.107117 
	C157.352448,176.643845 130.331909,174.242920 103.325989,171.687531 
	C101.548378,171.519318 98.945290,170.548492 98.429077,169.265732 
	C97.916801,167.992722 99.144394,165.488571 100.322174,164.153625 
	C107.377625,156.156708 117.212555,153.900040 127.046509,151.991730 
	C148.669693,147.795685 170.545074,147.912643 192.220642,150.562622 
	C209.656723,152.694305 227.028687,156.124222 244.069351,160.408844 
	C253.400299,162.754974 262.322052,167.478210 270.759094,172.300400 
	C274.727509,174.568558 277.503510,179.356201 280.085114,183.463898 
	C281.781036,186.162292 279.758484,187.914688 276.749725,187.643753 
	C254.707733,185.659042 232.671295,183.612366 210.634888,181.565933 
	C202.182724,180.781006 193.735245,179.945709 184.827606,179.107117 
M120.890411,167.759430 
	C124.756393,167.519043 129.364471,168.526428 132.325897,166.765137 
	C137.644958,163.601639 141.975189,158.775589 146.621933,154.728439 
	C134.370361,156.424423 121.083885,156.419861 110.168114,164.759430 
	C110.234756,165.305756 110.301399,165.852081 110.368042,166.398407 
	C113.576782,166.818726 116.785530,167.239044 120.890411,167.759430 
M149.803894,154.624496 
	C149.933273,154.613983 150.062668,154.603470 150.192047,154.592941 
	C150.002716,154.551758 149.813370,154.510574 149.803894,154.624496 
z"/>
<path fill="#F9FDFB" opacity="1.000000" stroke="none" 
	d="
M87.997726,182.125366 
	C90.584557,183.242935 92.824242,184.226746 95.316589,185.321518 
	C84.459335,187.308487 68.465828,184.013428 59.898216,178.153061 
	C49.945782,171.345459 47.540047,159.963257 53.505497,148.555099 
	C56.940582,141.985931 61.907364,136.773407 68.434731,133.606918 
	C77.773468,129.076599 87.485550,125.315887 97.038200,121.226540 
	C97.298271,121.738480 97.558342,122.250412 97.818420,122.762344 
	C95.323845,124.433052 92.620010,125.864220 90.377365,127.823318 
	C85.393204,132.177338 79.896233,136.228500 75.938599,141.417709 
	C65.923294,154.549683 68.413879,168.609894 81.727402,178.311249 
	C83.600922,179.676468 85.671310,180.771500 87.997726,182.125366 
z"/>
<path fill="#FBFEFC" opacity="1.000000" stroke="none" 
	d="
M214.895416,146.413467 
	C202.896240,145.287674 191.302048,144.179672 179.696228,143.210785 
	C175.656250,142.873535 174.250153,140.851303 174.540955,136.941299 
	C175.508072,123.938080 175.457748,123.894554 188.515228,124.889748 
	C197.473343,125.572502 206.421524,126.385307 215.374344,127.137894 
	C219.296127,127.467575 221.633438,129.174545 221.101486,133.531204 
	C220.779053,136.171951 220.567993,138.826767 220.331512,141.477448 
	C220.055710,144.569061 218.578461,146.429062 214.895416,146.413467 
z"/>
<path fill="#F8FDFA" opacity="1.000000" stroke="none" 
	d="
M95.100693,140.801697 
	C105.930054,131.239365 117.243668,122.586617 126.896263,112.365273 
	C137.929276,100.682152 135.236465,91.999451 120.270302,86.011543 
	C117.085434,84.737282 113.777313,83.771103 110.525970,82.662994 
	C110.581299,82.200653 110.636627,81.738319 110.691956,81.275978 
	C119.870346,81.863647 129.190521,81.656693 138.187332,83.261978 
	C147.224533,84.874489 149.971848,91.054352 147.017014,99.787941 
	C144.197479,108.121681 138.364059,114.207680 131.900482,119.868675 
	C121.265419,129.183197 109.010292,135.785172 96.269760,141.615204 
	C95.861549,141.801987 95.322403,141.702637 94.844299,141.736664 
	C94.846588,141.497223 94.848885,141.257767 95.100693,140.801697 
z"/>
<path fill="#F6FCF8" opacity="1.000000" stroke="none" 
	d="
M96.664871,81.191727 
	C94.380852,92.150490 96.970650,96.349495 109.866058,103.280609 
	C103.169212,104.553329 94.145065,102.530045 88.949883,98.591019 
	C82.578987,93.760559 82.024132,84.601044 87.830421,77.783691 
	C93.718391,70.870453 101.855202,68.189941 109.601349,65.943863 
	C105.467026,70.781822 101.168999,75.811356 96.664871,81.191727 
z"/>
<path fill="#FDFDFD" opacity="1.000000" stroke="none" 
	d="
M482.102783,105.770233 
	C491.759521,107.000374 498.094818,112.196266 500.255920,120.983047 
	C501.801361,127.266594 502.467560,134.171982 501.625885,140.549118 
	C500.070557,152.333633 491.391632,158.531891 477.684723,159.311081 
	C464.441589,160.063904 454.860199,154.349609 450.826538,143.292953 
	C446.265961,130.791977 449.499542,117.271194 458.907990,110.337540 
	C465.731781,105.308678 473.540436,104.542778 482.102783,105.770233 
z"/>
<path fill="#F9F9F9" opacity="1.000000" stroke="none" 
	d="
M686.682251,110.507195 
	C694.889160,106.037918 703.330017,106.225960 711.814514,107.553246 
	C715.454834,108.122719 718.747131,109.945587 718.776245,114.180611 
	C718.805969,118.503853 715.197083,120.072647 711.769653,120.803352 
	C700.784912,123.145218 690.025879,121.718727 678.241821,117.990433 
	C681.363647,115.205734 683.873474,112.966942 686.682251,110.507195 
z"/>
<path fill="#FEFEFE" opacity="1.000000" stroke="none" 
	d="
M949.128418,312.253693 
	C948.434509,312.728088 947.376648,312.868347 945.282837,313.145935 
	C946.509094,312.187378 946.943359,311.847961 947.675049,311.418335 
	C948.236511,311.525269 948.500427,311.722412 949.128418,312.253693 
z"/>
<path fill="#FEFEFE" opacity="1.000000" stroke="none" 
	d="
M908.011597,312.120544 
	C907.383789,312.646973 906.363831,312.869598 904.159912,313.350647 
	C905.415588,312.198486 905.802246,311.843689 906.477600,311.399353 
	C907.050659,311.478760 907.334961,311.647766 908.011597,312.120544 
z"/>
<path fill="#4AC677" opacity="1.000000" stroke="none" 
	d="
M155.623627,226.336716 
	C155.623596,246.295990 155.642471,265.791351 155.613190,285.286621 
	C155.603577,291.686340 155.194153,292.052551 148.815445,292.065125 
	C140.817398,292.080902 132.818619,292.133606 124.821381,292.051208 
	C115.389763,291.954041 109.027023,285.925751 108.924202,276.505188 
	C108.735092,259.178192 108.902832,241.847504 108.813980,224.518890 
	C108.795753,220.965393 110.209564,219.218033 113.784477,219.248901 
	C125.777504,219.352448 137.770859,219.524887 149.763641,219.493607 
	C154.298630,219.481781 156.194687,221.426163 155.623627,226.336716 
z"/>
<path fill="#50C87C" opacity="1.000000" stroke="none" 
	d="
M120.442345,167.709412 
	C116.785530,167.239044 113.576782,166.818726 110.368042,166.398407 
	C110.301399,165.852081 110.234756,165.305756 110.168114,164.759430 
	C121.083885,156.419861 134.370361,156.424423 146.621933,154.728439 
	C141.975189,158.775589 137.644958,163.601639 132.325897,166.765137 
	C129.364471,168.526428 124.756393,167.519043 120.442345,167.709412 
z"/>
<path fill="#50C87C" opacity="1.000000" stroke="none" 
	d="
M149.713959,154.546936 
	C149.813370,154.510574 150.002716,154.551758 150.192047,154.592957 
	C150.062668,154.603470 149.933273,154.613983 149.713959,154.546936 
z"/>
</svg>